<svg height="512pt" viewBox="0 0 512 512" width="512pt" xmlns="http://www.w3.org/2000/svg"><path d="m448.34375 0-150.523438 151.167969h-297.820312v360.832031h421.804688v-357.855469l90.148437-90.535156zm-84.585938 127.445312 21.203126 21.203126-107.789063 108.246093-21.203125-21.203125zm-107.742187 150.699219-7.835937 7.867188-29.546876 8.355469 8.367188-29.582032 7.8125-7.84375zm-226.03125-96.992187h237.976563l-59.71875 59.972656h-178.257813zm361.835937 300.863281h-361.835937v-210.90625h164.0625l-8.476563 29.988281h-125.597656v29.984375h139.015625l64.902344-18.351562 41.445313-41.621094h86.484374zm0-240.890625h-56.625l56.625-56.867188zm14.296876-113.722656-21.203126-21.203125 21.160157-21.25 21.203125 21.203125zm21.113281-63.703125 21.160156-21.246094 21.203125 21.203125-21.160156 21.246094zm0 0"/><path d="m59.972656 198.144531h29.984375v29.984375h-29.984375zm0 0"/><path d="m120.945312 198.144531h29.984376v29.984375h-29.984376zm0 0"/><path d="m181.917969 198.144531h29.984375v29.984375h-29.984375zm0 0"/><path d="m59.972656 361.070312h301.859375v29.984376h-301.859375zm0 0"/><path d="m59.972656 421.042969h301.859375v29.984375h-301.859375zm0 0"/></svg>